<svg width="19" height="16" viewBox="0 0 19 16" fill="none" xmlns="http://www.w3.org/2000/svg">
<path d="M0.409091 14V2.36364H4.34091C5.25 2.36364 5.99621 2.51894 6.57955 2.82955C7.16288 3.13636 7.5947 3.55871 7.875 4.09659C8.1553 4.63447 8.29545 5.24621 8.29545 5.93182C8.29545 6.61742 8.1553 7.22538 7.875 7.75568C7.5947 8.28598 7.16477 8.70265 6.58523 9.00568C6.00568 9.30492 5.26515 9.45455 4.36364 9.45455H1.18182V8.18182H4.31818C4.93939 8.18182 5.43939 8.09091 5.81818 7.90909C6.20076 7.72727 6.47727 7.4697 6.64773 7.13636C6.82197 6.79924 6.90909 6.39773 6.90909 5.93182C6.90909 5.46591 6.82197 5.05871 6.64773 4.71023C6.47349 4.36174 6.19508 4.0928 5.8125 3.90341C5.42992 3.71023 4.92424 3.61364 4.29545 3.61364H1.81818V14H0.409091ZM5.88636 8.77273L8.75 14H7.11364L4.29545 8.77273H5.88636ZM13.8707 15.4545V0.90909H14.8026V15.4545H13.8707ZM17.0071 5.27273C16.9389 4.69697 16.6624 4.25 16.1776 3.93182C15.6927 3.61364 15.098 3.45455 14.3935 3.45455C13.8783 3.45455 13.4276 3.53788 13.0412 3.70455C12.6586 3.87121 12.3594 4.10038 12.1435 4.39205C11.9313 4.68371 11.8253 5.01515 11.8253 5.38636C11.8253 5.69697 11.8991 5.96401 12.0469 6.1875C12.1984 6.4072 12.3916 6.59091 12.6264 6.73864C12.8613 6.88258 13.1075 7.00189 13.3651 7.09659C13.6226 7.1875 13.8594 7.26136 14.0753 7.31818L15.2571 7.63636C15.5601 7.71591 15.8973 7.82576 16.2685 7.96591C16.6435 8.10606 17.0014 8.29735 17.3423 8.53977C17.687 8.77841 17.9711 9.08523 18.1946 9.46023C18.4181 9.83523 18.5298 10.2955 18.5298 10.8409C18.5298 11.4697 18.3651 12.0379 18.0355 12.5455C17.7098 13.053 17.2325 13.4564 16.6037 13.7557C15.9787 14.0549 15.2192 14.2045 14.3253 14.2045C13.492 14.2045 12.7704 14.0701 12.1605 13.8011C11.5545 13.5322 11.0772 13.1572 10.7287 12.6761C10.384 12.1951 10.1889 11.6364 10.1435 11H11.598C11.6359 11.4394 11.7836 11.803 12.0412 12.0909C12.3026 12.375 12.6321 12.5871 13.0298 12.7273C13.4313 12.8636 13.8632 12.9318 14.3253 12.9318C14.8632 12.9318 15.3461 12.8447 15.7741 12.6705C16.2022 12.4924 16.5412 12.2462 16.7912 11.9318C17.0412 11.6136 17.1662 11.2424 17.1662 10.8182C17.1662 10.4318 17.0582 10.1174 16.8423 9.875C16.6264 9.63258 16.3423 9.43561 15.9901 9.28409C15.6378 9.13258 15.2571 9 14.848 8.88636L13.4162 8.47727C12.5071 8.21591 11.7874 7.8428 11.2571 7.35795C10.7268 6.87311 10.4616 6.23864 10.4616 5.45455C10.4616 4.80303 10.6378 4.23485 10.9901 3.75C11.3461 3.26136 11.8234 2.88258 12.4219 2.61364C13.0241 2.34091 13.6965 2.20455 14.4389 2.20455C15.1889 2.20455 15.8556 2.33901 16.4389 2.60795C17.0223 2.87311 17.4844 3.23674 17.8253 3.69886C18.17 4.16098 18.3518 4.68561 18.3707 5.27273H17.0071Z" fill="#868E96"/>
</svg>
